#Comment line ignore any data following # character 
#Hierarchical Translation and Rotation (.htr) file 
[Header]	
#Header keywords are followed by a single value 
FileType HTR		#Single word string
DataType HTRS		#Translation followed by rotation and scale data
FileVersion 1		#integer
NumSegments 84		#integer
NumFrames 2		#integer
DataFrameRate 30		#integer, data frame rate in this file
EulerRotationOrder ZYX
CalibrationUnits mm
RotationUnits Degrees
GlobalAxisofGravity Y
BoneLengthAxis Y
ScaleFactor 1.00
[SegmentNames&Hierarchy]
#CHILD	PARENT
MASTER GLOBAL
root MASTER
chest root
L_mid_tent01 root
R_mid_tent01 root
spine01 root
Bip01_Neck chest
L_humerus chest
R_humerus chest
weapon_bone chest
Bip01_Head Bip01_Neck
eye_left_bone Bip01_Head
eye_right_bone Bip01_Head
L_forearm L_humerus
L_front_hand L_forearm
L_weapon_bone L_forearm
L_front_hand01_01 L_front_hand
L_front_hand02_01 L_front_hand
L_front_hand03_01 L_front_hand
L_front_hand01_02 L_front_hand01_01
L_front_hand02_02 L_front_hand02_01
L_front_hand03_02 L_front_hand03_01
R_forearm R_humerus
R_front_hand R_forearm
R_weapon_bone R_forearm
R_front_hand01_01 R_front_hand
R_front_hand02_01 R_front_hand
R_front_hand03_01 R_front_hand
R_front_hand01_02 R_front_hand01_01
R_front_hand02_02 R_front_hand02_01
R_front_hand03_02 R_front_hand03_01
null_rope01_connect L_mid_tent01
Rope1_Seg01 null_rope01_connect
Rope1_Seg02 Rope1_Seg01
Rope1_Seg03 Rope1_Seg02
Rope1_Seg04 Rope1_Seg03
Rope1_Seg05 Rope1_Seg04
Rope1_Seg06 Rope1_Seg05
Rope1_Seg07 Rope1_Seg06
Rope1_Seg09 Rope1_Seg07
L_mid_hand01 Rope1_Seg09
L_mid_hand02 Rope1_Seg09
L_mid_hand03 Rope1_Seg09
null_rope02_connect R_mid_tent01
Rope2_Seg01 null_rope02_connect
Rope2_Seg02 Rope2_Seg01
Rope2_Seg03 Rope2_Seg02
Rope2_Seg04 Rope2_Seg03
Rope2_Seg05 Rope2_Seg04
Rope2_Seg06 Rope2_Seg05
Rope2_Seg07 Rope2_Seg06
Rope2_Seg09 Rope2_Seg07
R_mid_hand01 Rope2_Seg09
R_mid_hand02 Rope2_Seg09
R_mid_hand03 Rope2_Seg09
spine02 spine01
spine03 spine02
pelvis spine03
null_rope03_connect pelvis
null_rope04_connect pelvis
Rope3_Seg01 null_rope03_connect
Rope3_Seg02 Rope3_Seg01
Rope3_Seg03 Rope3_Seg02
Rope3_Seg04 Rope3_Seg03
Rope3_Seg05 Rope3_Seg04
Rope3_Seg06 Rope3_Seg05
Rope3_Seg07 Rope3_Seg06
Rope3_Seg08 Rope3_Seg07
Rope3_Seg09 Rope3_Seg08
R_rear_hand01 Rope3_Seg09
R_rear_hand02 Rope3_Seg09
R_rear_hand03 Rope3_Seg09
Rope4_Seg01 null_rope04_connect
Rope4_Seg02 Rope4_Seg01
Rope4_Seg03 Rope4_Seg02
Rope4_Seg04 Rope4_Seg03
Rope4_Seg05 Rope4_Seg04
Rope4_Seg06 Rope4_Seg05
Rope4_Seg07 Rope4_Seg06
Rope4_Seg08 Rope4_Seg07
Rope4_Seg09 Rope4_Seg08
L_rear_hand01 Rope4_Seg09
L_rear_hand02 Rope4_Seg09
L_rear_hand03 Rope4_Seg09
[BasePosition]
#SegmentName Tx, Ty, Tz, Rx, Ry, Rz, BoneLength
MASTER 0.000000 0.000000 0.000000 -90.000000 0.000000 0.000000 10.000000 
root 0.000000 0.000000 0.000000 0.000000 0.000000 0.000000 10.000000 
chest 0.000000 0.000000 0.000000 0.000000 0.000000 0.000000 10.000000 
L_mid_tent01 0.000000 0.000000 0.000000 0.000000 0.000000 0.000000 10.000000 
R_mid_tent01 0.000000 0.000000 0.000000 0.000000 0.000000 0.000000 10.000000 
spine01 0.000000 0.000000 0.000000 0.000000 0.000000 0.000000 10.000000 
Bip01_Neck 0.000000 0.000000 0.000000 0.000000 0.000000 0.000000 10.000000 
L_humerus 0.000000 0.000000 0.000000 0.000000 0.000000 0.000000 10.000000 
R_humerus 0.000000 0.000000 0.000000 0.000000 0.000000 0.000000 10.000000 
weapon_bone 0.000000 0.000000 0.000000 0.000000 0.000000 0.000000 10.000000 
Bip01_Head 0.000000 0.000000 0.000000 0.000000 0.000000 0.000000 10.000000 
eye_left_bone 0.000000 0.000000 0.000000 0.000000 0.000000 0.000000 10.000000 
eye_right_bone 0.000000 0.000000 0.000000 0.000000 0.000000 0.000000 10.000000 
L_forearm 0.000000 0.000000 0.000000 0.000000 0.000000 0.000000 10.000000 
L_front_hand 0.000000 0.000000 0.000000 0.000000 0.000000 0.000000 10.000000 
L_weapon_bone 0.000000 0.000000 0.000000 0.000000 0.000000 0.000000 10.000000 
L_front_hand01_01 0.000000 0.000000 0.000000 0.000000 0.000000 0.000000 10.000000 
L_front_hand02_01 0.000000 0.000000 0.000000 0.000000 0.000000 0.000000 10.000000 
L_front_hand03_01 0.000000 0.000000 0.000000 0.000000 0.000000 0.000000 10.000000 
L_front_hand01_02 0.000000 0.000000 0.000000 0.000000 0.000000 0.000000 10.000000 
L_front_hand02_02 0.000000 0.000000 0.000000 0.000000 0.000000 0.000000 10.000000 
L_front_hand03_02 0.000000 0.000000 0.000000 0.000000 0.000000 0.000000 10.000000 
R_forearm 0.000000 0.000000 0.000000 0.000000 0.000000 0.000000 10.000000 
R_front_hand 0.000000 0.000000 0.000000 0.000000 0.000000 0.000000 10.000000 
R_weapon_bone 0.000000 0.000000 0.000000 0.000000 0.000000 0.000000 10.000000 
R_front_hand01_01 0.000000 0.000000 0.000000 0.000000 0.000000 0.000000 10.000000 
R_front_hand02_01 0.000000 0.000000 0.000000 0.000000 0.000000 0.000000 10.000000 
R_front_hand03_01 0.000000 0.000000 0.000000 0.000000 0.000000 0.000000 10.000000 
R_front_hand01_02 0.000000 0.000000 0.000000 0.000000 0.000000 0.000000 10.000000 
R_front_hand02_02 0.000000 0.000000 0.000000 0.000000 0.000000 0.000000 10.000000 
R_front_hand03_02 0.000000 0.000000 0.000000 0.000000 0.000000 0.000000 10.000000 
null_rope01_connect 0.000000 0.000000 0.000000 0.000000 0.000000 0.000000 10.000000 
Rope1_Seg01 0.000000 0.000000 0.000000 0.000000 0.000000 0.000000 10.000000 
Rope1_Seg02 0.000000 0.000000 0.000000 0.000000 0.000000 0.000000 10.000000 
Rope1_Seg03 0.000000 0.000000 0.000000 0.000000 0.000000 0.000000 10.000000 
Rope1_Seg04 0.000000 0.000000 0.000000 0.000000 0.000000 0.000000 10.000000 
Rope1_Seg05 0.000000 0.000000 0.000000 0.000000 0.000000 0.000000 10.000000 
Rope1_Seg06 0.000000 0.000000 0.000000 0.000000 0.000000 0.000000 10.000000 
Rope1_Seg07 0.000000 0.000000 0.000000 0.000000 0.000000 0.000000 10.000000 
Rope1_Seg09 0.000000 0.000000 0.000000 0.000000 0.000000 0.000000 10.000000 
L_mid_hand01 0.000000 0.000000 0.000000 0.000000 0.000000 0.000000 10.000000 
L_mid_hand02 0.000000 0.000000 0.000000 0.000000 0.000000 0.000000 10.000000 
L_mid_hand03 0.000000 0.000000 0.000000 0.000000 0.000000 0.000000 10.000000 
null_rope02_connect 0.000000 0.000000 0.000000 0.000000 0.000000 0.000000 10.000000 
Rope2_Seg01 0.000000 0.000000 0.000000 0.000000 0.000000 0.000000 10.000000 
Rope2_Seg02 0.000000 0.000000 0.000000 0.000000 0.000000 0.000000 10.000000 
Rope2_Seg03 0.000000 0.000000 0.000000 0.000000 0.000000 0.000000 10.000000 
Rope2_Seg04 0.000000 0.000000 0.000000 0.000000 0.000000 0.000000 10.000000 
Rope2_Seg05 0.000000 0.000000 0.000000 0.000000 0.000000 0.000000 10.000000 
Rope2_Seg06 0.000000 0.000000 0.000000 0.000000 0.000000 0.000000 10.000000 
Rope2_Seg07 0.000000 0.000000 0.000000 0.000000 0.000000 0.000000 10.000000 
Rope2_Seg09 0.000000 0.000000 0.000000 0.000000 0.000000 0.000000 10.000000 
R_mid_hand01 0.000000 0.000000 0.000000 0.000000 0.000000 0.000000 10.000000 
R_mid_hand02 0.000000 0.000000 0.000000 0.000000 0.000000 0.000000 10.000000 
R_mid_hand03 0.000000 0.000000 0.000000 0.000000 0.000000 0.000000 10.000000 
spine02 0.000000 0.000000 0.000000 0.000000 0.000000 0.000000 10.000000 
spine03 0.000000 0.000000 0.000000 0.000000 0.000000 0.000000 10.000000 
pelvis 0.000000 0.000000 0.000000 0.000000 0.000000 0.000000 10.000000 
null_rope03_connect 0.000000 0.000000 0.000000 0.000000 0.000000 0.000000 10.000000 
null_rope04_connect 0.000000 0.000000 0.000000 0.000000 0.000000 0.000000 10.000000 
Rope3_Seg01 0.000000 0.000000 0.000000 0.000000 0.000000 0.000000 10.000000 
Rope3_Seg02 0.000000 0.000000 0.000000 0.000000 0.000000 0.000000 10.000000 
Rope3_Seg03 0.000000 0.000000 0.000000 0.000000 0.000000 0.000000 10.000000 
Rope3_Seg04 0.000000 0.000000 0.000000 0.000000 0.000000 0.000000 10.000000 
Rope3_Seg05 0.000000 0.000000 0.000000 0.000000 0.000000 0.000000 10.000000 
Rope3_Seg06 0.000000 0.000000 0.000000 0.000000 0.000000 0.000000 10.000000 
Rope3_Seg07 0.000000 0.000000 0.000000 0.000000 0.000000 0.000000 10.000000 
Rope3_Seg08 0.000000 0.000000 0.000000 0.000000 0.000000 0.000000 10.000000 
Rope3_Seg09 0.000000 0.000000 0.000000 0.000000 0.000000 0.000000 10.000000 
R_rear_hand01 0.000000 0.000000 0.000000 0.000000 0.000000 0.000000 10.000000 
R_rear_hand02 0.000000 0.000000 0.000000 0.000000 0.000000 0.000000 10.000000 
R_rear_hand03 0.000000 0.000000 0.000000 0.000000 0.000000 0.000000 10.000000 
Rope4_Seg01 0.000000 0.000000 0.000000 0.000000 0.000000 0.000000 10.000000 
Rope4_Seg02 0.000000 0.000000 0.000000 0.000000 0.000000 0.000000 10.000000 
Rope4_Seg03 0.000000 0.000000 0.000000 0.000000 0.000000 0.000000 10.000000 
Rope4_Seg04 0.000000 0.000000 0.000000 0.000000 0.000000 0.000000 10.000000 
Rope4_Seg05 0.000000 0.000000 0.000000 0.000000 0.000000 0.000000 10.000000 
Rope4_Seg06 0.000000 0.000000 0.000000 0.000000 0.000000 0.000000 10.000000 
Rope4_Seg07 0.000000 0.000000 0.000000 0.000000 0.000000 0.000000 10.000000 
Rope4_Seg08 0.000000 0.000000 0.000000 0.000000 0.000000 0.000000 10.000000 
Rope4_Seg09 0.000000 0.000000 0.000000 0.000000 0.000000 0.000000 10.000000 
L_rear_hand01 0.000000 0.000000 0.000000 0.000000 0.000000 0.000000 10.000000 
L_rear_hand02 0.000000 0.000000 0.000000 0.000000 0.000000 0.000000 10.000000 
L_rear_hand03 0.000000 0.000000 0.000000 0.000000 0.000000 0.000000 10.000000 
#Beginning of Data. Separated by tabs
#Fr	Tx	Ty	Tz	Rx	Ry	Rz	SF
[MASTER]
32 0.000000 0.000000 0.000000 0.001660 0.001660 0.001660 0.000000
33 0.000000 0.000000 0.000000 0.001660 0.001660 0.001660 0.000000
[root]
32 -5.121345 -55.424545 1511.848389 -108.511650 14.995273 -87.656242 1512.872681
33 -4.991443 -54.154613 1515.548950 -108.150208 14.421519 -87.465157 1516.524414
[chest]
32 -86.836601 -33.005978 -30.127239 3.650758 -9.661659 -174.308868 97.660843
33 -86.836601 -33.005978 -30.127239 3.200618 -9.569357 -174.284210 97.660843
[L_mid_tent01]
32 27.299498 22.177580 -249.918289 -6.326039 20.657722 74.668999 252.381180
33 27.299496 22.177580 -249.918289 -6.115032 20.552114 75.194641 252.381180
[R_mid_tent01]
32 23.228794 24.509907 226.238495 -175.995193 -18.522524 65.442055 228.744751
33 23.228794 24.509907 226.238495 -175.998428 -18.414228 65.446922 228.744751
[spine01]
32 -0.361383 -0.195265 0.000000 -0.000001 -0.000007 22.052340 0.410763
33 -0.361383 -0.195265 0.000000 -0.000001 -0.000007 22.052340 0.410763
[Bip01_Neck]
32 165.484543 71.581718 0.000119 175.896118 1.177290 24.871183 180.302734
33 165.484543 71.581718 0.000119 175.896118 1.177290 24.871183 180.302734
[L_humerus]
32 -13.983130 -135.272980 -120.471481 -168.517593 36.033752 -113.483025 181.680161
33 -13.983130 -135.272980 -120.471481 -168.517593 36.033752 -113.483025 181.680161
[R_humerus]
32 -13.983309 -135.273102 125.287651 -179.620148 -19.552614 -121.963249 184.909012
33 -13.983309 -135.273102 125.287651 -179.588654 -28.895130 -122.030510 184.909012
[weapon_bone]
32 235.964890 -300.705902 0.000000 0.000000 -89.951546 -128.212341 382.234833
33 235.964890 -300.705902 0.000000 0.000000 -89.951546 -128.212341 382.234833
[Bip01_Head]
32 189.519958 179.130234 22.124901 -23.626308 5.787232 14.654979 261.715424
33 189.519958 179.130234 22.124903 -23.626308 5.787232 14.654979 261.715424
[eye_left_bone]
32 -24.626970 125.451866 -64.772606 0.000000 -90.000000 -99.840431 143.318359
33 -24.626970 125.451866 -64.772606 0.000000 -90.000000 -99.840431 143.318359
[eye_right_bone]
32 -24.626970 125.451866 64.327362 0.000000 -89.965736 80.156380 143.117676
33 -24.626970 125.451866 64.327362 0.000000 -89.965736 80.156380 143.117676
[L_forearm]
32 322.776093 0.000000 -0.000119 0.000017 0.002347 -89.149834 322.776093
33 322.776093 0.000000 -0.000119 0.000017 0.002347 -89.149834 322.776093
[L_front_hand]
32 241.149185 -0.042021 -3.300071 58.761162 -2.245716 -0.021091 241.171753
33 241.149185 -0.042021 -3.300071 57.186871 -2.246197 -0.020507 241.171753
[L_weapon_bone]
32 156.183838 0.000000 0.000000 0.000014 0.000007 0.000001 156.183838
33 156.183838 0.000000 0.000000 0.000014 0.000007 0.000001 156.183838
[L_front_hand01_01]
32 86.095154 20.947098 -0.655860 -0.366594 -0.477154 75.385574 88.609184
33 86.095154 20.947098 -0.655860 -0.366594 -0.477154 75.385574 88.609184
[L_front_hand02_01]
32 86.935165 -11.437475 24.513514 154.399796 -59.883835 -61.369587 91.046425
33 86.935165 -11.437475 24.513514 154.399796 -59.883835 -61.369587 91.046425
[L_front_hand03_01]
32 86.637497 -14.123976 -20.424902 -153.913849 58.118122 -62.702866 90.126129
33 86.637497 -14.123976 -20.424902 -153.913849 58.118122 -62.702866 90.126129
[L_front_hand01_02]
32 71.020905 -0.000179 0.000030 0.000334 -0.002323 -106.379684 71.020905
33 71.020905 -0.000179 0.000030 0.000334 -0.002323 -106.379684 71.020905
[L_front_hand02_02]
32 71.020927 -0.000119 0.000060 0.000334 -0.002323 -106.379684 71.020927
33 71.020927 -0.000119 0.000060 0.000334 -0.002323 -106.379684 71.020927
[L_front_hand03_02]
32 71.020905 -0.000060 0.000060 0.000334 -0.002323 -106.379684 71.020905
33 71.020905 -0.000060 0.000060 0.000334 -0.002323 -106.379684 71.020905
[R_forearm]
32 322.776428 -0.000060 0.000030 0.213197 0.007525 -93.425262 322.776428
33 322.776428 -0.000060 0.000030 0.213197 0.007525 -93.425262 322.776428
[R_front_hand]
32 238.847015 -0.006795 2.210259 -0.270529 1.703932 2.322530 238.857239
33 238.847015 -0.006795 2.210259 -0.270529 1.703932 2.322530 238.857239
[R_weapon_bone]
32 155.664093 0.002503 -0.000030 0.003487 0.001180 -90.988930 155.664078
33 155.664093 0.002503 -0.000030 0.003487 0.001180 -90.988930 155.664078
[R_front_hand01_01]
32 87.624611 14.231146 22.918642 -154.633499 -59.950619 61.746044 91.683487
33 87.624611 14.231146 22.918642 -154.633499 -59.950619 61.746044 91.683487
[R_front_hand02_01]
32 89.356956 14.367283 -19.491137 154.602661 58.302849 63.744389 92.579636
33 89.356956 14.367283 -19.491137 154.602661 58.302849 63.744389 92.579636
[R_front_hand03_01]
32 87.286232 -22.307278 -0.143439 0.162155 -0.423168 -75.767921 90.091743
33 87.286232 -22.307278 -0.143439 0.162155 -0.423168 -75.767921 90.091743
[R_front_hand01_02]
32 71.020905 0.000060 0.000119 0.002323 -0.000334 106.381714 71.020905
33 71.020905 0.000060 0.000119 0.002323 -0.000334 106.381714 71.020905
[R_front_hand02_02]
32 71.020844 -0.000030 -0.000119 0.002323 -0.000334 106.381714 71.020836
33 71.020844 -0.000030 -0.000119 0.002323 -0.000334 106.381714 71.020836
[R_front_hand03_02]
32 71.020905 0.000000 0.000030 0.002323 -0.000334 106.381714 71.020905
33 71.020905 0.000000 0.000030 0.002323 -0.000334 106.381714 71.020905
[null_rope01_connect]
32 328.732483 0.000000 -0.000238 161.172638 -49.228443 -161.305725 328.732483
33 328.732483 0.000000 -0.000238 161.434753 -49.703739 -161.418625 328.732483
[Rope1_Seg01]
32 0.000000 0.000000 0.000000 -160.477859 58.245129 -138.232513 0.000000
33 0.000000 0.000000 0.000000 -157.517380 57.489056 -135.949020 0.000000
[Rope1_Seg02]
32 139.999863 -0.000179 0.000000 10.475322 -5.242163 -5.352821 139.999863
33 139.999863 -0.000179 0.000000 10.541333 -5.521361 -4.820162 139.999863
[Rope1_Seg03]
32 139.999924 0.000060 -0.000060 13.157432 -8.469584 -5.585630 139.999924
33 139.999924 0.000060 -0.000060 12.771844 -8.774136 -4.811026 139.999924
[Rope1_Seg04]
32 139.999924 -0.000060 -0.000119 14.850466 -16.881493 -3.671102 139.999924
33 139.999924 -0.000060 -0.000119 13.801164 -17.590996 -2.254739 139.999924
[Rope1_Seg05]
32 139.999832 0.000119 -0.000060 5.462710 -1.154159 -7.168414 139.999832
33 139.999832 0.000119 -0.000060 4.887282 -0.255720 -7.558813 139.999832
[Rope1_Seg06]
32 139.999954 0.000119 -0.000060 0.863365 5.750380 -7.934245 139.999954
33 139.999954 0.000119 -0.000060 0.544960 7.030818 -9.181307 139.999954
[Rope1_Seg07]
32 139.999985 0.000060 0.000000 2.567826 0.881725 -3.491552 139.999985
33 139.999985 0.000060 0.000000 2.594561 1.443167 -3.978779 139.999985
[Rope1_Seg09]
32 121.602913 0.000119 -0.000089 -89.793175 -1.359789 0.847147 121.602913
33 121.602913 0.000119 -0.000089 -89.793175 -1.359789 0.847147 121.602913
[L_mid_hand01]
32 103.859421 1.038730 8.195221 106.855484 -31.239275 -9.461397 104.187431
33 103.859421 1.038730 8.195221 106.855484 -31.239275 -9.461397 104.187431
[L_mid_hand02]
32 105.572853 -4.139662 -10.864139 -142.331345 25.752670 -28.774628 106.211075
33 105.572853 -4.139662 -10.864139 -142.331345 25.752670 -28.774628 106.211075
[L_mid_hand03]
32 104.641464 17.579376 -3.913581 -16.122810 9.734291 34.223598 106.179977
33 104.641464 17.579376 -3.913581 -16.122810 9.734291 34.223598 106.179977
[null_rope02_connect]
32 328.732849 0.000179 -0.000119 -99.635582 83.800552 72.118729 328.732849
33 328.732849 0.000179 -0.000119 -101.319794 83.667480 69.847435 328.732849
[Rope2_Seg01]
32 0.000076 0.000111 0.000153 119.757980 84.893433 -125.284401 0.000203
33 0.000076 0.000111 0.000153 126.017799 84.461617 -118.874336 0.000203
[Rope2_Seg02]
32 139.999741 -0.000060 -0.000119 -3.268725 7.498278 7.001550 139.999756
33 139.999741 -0.000060 -0.000119 -3.352488 7.163923 7.094100 139.999756
[Rope2_Seg03]
32 140.000107 0.000030 0.000000 -5.136184 8.315168 10.210811 140.000107
33 140.000107 0.000030 0.000000 -5.254446 8.041908 10.587371 140.000107
[Rope2_Seg04]
32 139.999802 0.000000 -0.000060 -6.169286 7.698101 11.526431 139.999802
33 139.999802 0.000000 -0.000060 -6.189898 7.440898 11.936654 139.999802
[Rope2_Seg05]
32 139.999985 -0.000060 0.000119 0.242630 4.981699 -2.997970 139.999985
33 139.999985 -0.000060 0.000119 0.963557 4.716323 -4.305854 139.999985
[Rope2_Seg06]
32 139.999893 -0.000030 -0.000119 1.330136 3.082295 -3.609708 139.999893
33 139.999893 -0.000030 -0.000119 1.894799 2.801760 -4.376467 139.999893
[Rope2_Seg07]
32 139.999893 0.000060 -0.000060 0.011715 2.118728 -1.061648 139.999893
33 139.999893 0.000060 -0.000060 0.406907 1.906426 -1.510160 139.999893
[Rope2_Seg09]
32 121.338966 0.000089 -0.000060 33.793236 -1.359788 -0.847141 121.338966
33 121.338966 0.000089 -0.000060 33.793236 -1.359788 -0.847141 121.338966
[R_mid_hand01]
32 104.680779 11.144459 -10.335981 -41.523792 25.424656 28.595957 105.778534
33 104.680779 11.144459 -10.335981 -41.523792 25.424656 28.595957 105.778534
[R_mid_hand02]
32 104.070427 2.443552 8.231699 72.847389 -32.746803 10.013901 104.424065
33 104.070427 2.443552 8.231699 72.847389 -32.746803 10.013901 104.424065
[R_mid_hand03]
32 106.028137 -11.221827 -5.996406 -167.901306 10.259192 -37.009720 106.788818
33 106.028137 -11.221827 -5.996406 -167.901306 10.259192 -37.009720 106.788818
[spine02]
32 129.756927 0.001550 0.000119 -0.245322 -4.052059 -4.355546 129.756927
33 129.756927 0.001550 0.000119 -0.245322 -4.052059 -4.355546 129.756927
[spine03]
32 78.613846 0.087372 -4.898873 0.207412 -2.089717 -0.432471 78.766380
33 78.613846 0.087372 -4.898873 0.207412 -2.089717 -0.432471 78.766380
[pelvis]
32 169.435242 0.051022 0.000000 -0.010007 -0.191417 -1.897554 169.435257
33 169.435242 0.051022 0.000000 -0.010007 -0.191417 -1.897554 169.435257
[null_rope03_connect]
32 -1.257226 -2.466202 137.391083 139.141708 -70.866669 -80.197418 137.418976
33 -1.257226 -2.466202 137.391083 138.775421 -71.084702 -79.219650 137.418976
[null_rope04_connect]
32 -1.259640 -2.480268 -137.844437 139.141708 -70.866669 -80.197418 137.872513
33 -1.259640 -2.480268 -137.844437 138.775421 -71.084702 -79.219650 137.872513
[Rope3_Seg01]
32 0.000000 0.000000 0.000000 -170.483276 73.256226 -106.866333 0.000000
33 0.000000 0.000000 0.000000 -170.301819 72.994865 -106.789787 0.000000
[Rope3_Seg02]
32 139.999924 -0.000119 0.000060 3.867647 8.055228 -4.941445 139.999924
33 139.999924 -0.000119 0.000060 3.857125 8.006144 -4.834432 139.999924
[Rope3_Seg03]
32 139.999924 -0.000119 0.000119 6.510478 14.848336 -8.410665 139.999924
33 139.999924 -0.000119 0.000119 6.536692 14.774381 -8.320668 139.999924
[Rope3_Seg04]
32 139.999924 0.000119 0.000000 5.811262 13.476755 -11.445777 139.999924
33 139.999924 0.000119 0.000000 6.111037 14.234721 -11.742051 139.999924
[Rope3_Seg05]
32 139.999924 -0.000238 0.000060 -8.918737 -24.758844 8.140929 139.999924
33 139.999924 -0.000238 0.000060 -9.267149 -24.982609 8.490310 139.999924
[Rope3_Seg06]
32 139.999893 -0.000119 -0.000060 -1.931107 -13.786654 2.631862 139.999893
33 139.999893 -0.000119 -0.000060 -2.130888 -14.372033 2.873123 139.999893
[Rope3_Seg07]
32 139.999771 0.000060 -0.000119 0.033737 -6.173806 0.599143 139.999771
33 139.999771 0.000060 -0.000119 -0.002111 -6.376724 0.645721 139.999771
[Rope3_Seg08]
32 139.999985 -0.000060 0.000000 0.403815 -3.491753 0.334064 139.999985
33 139.999985 -0.000060 0.000000 0.395821 -3.585869 0.370277 139.999985
[Rope3_Seg09]
32 90.185997 -0.000179 -0.000060 89.793228 -1.359877 -0.847183 90.185997
33 90.185997 -0.000179 -0.000060 89.793228 -1.359877 -0.847183 90.185997
[R_rear_hand01]
32 103.366196 -6.073594 -10.757982 -161.551193 16.666374 -30.088671 104.101845
33 103.366196 -6.073594 -10.757982 -161.551193 16.666374 -30.088671 104.101845
[R_rear_hand02]
32 100.509819 12.039542 -7.992327 -34.280552 19.289745 28.875523 101.543350
33 100.509819 12.039542 -7.992327 -34.280552 19.289745 28.875523 101.543350
[R_rear_hand03]
32 101.539970 5.215704 5.435467 83.366440 -30.933914 7.284830 101.819031
33 101.539970 5.215704 5.435467 83.366440 -30.933914 7.284830 101.819031
[Rope4_Seg01]
32 0.000010 0.000038 -0.000114 26.318449 67.487396 -135.587692 0.000121
33 0.000010 0.000038 -0.000114 28.138416 66.620979 -133.540787 0.000121
[Rope4_Seg02]
32 139.999985 0.000060 0.000119 -0.390164 1.651654 7.190212 139.999985
33 139.999985 0.000060 0.000119 -0.342061 2.008300 6.672222 139.999985
[Rope4_Seg03]
32 139.999924 0.000000 -0.000238 -1.246819 1.616318 9.273820 139.999924
33 139.999924 0.000000 -0.000238 -1.109519 2.039623 8.622088 139.999924
[Rope4_Seg04]
32 139.999985 0.000000 0.000119 -1.718512 1.671862 8.185343 139.999985
33 139.999985 0.000000 0.000119 -1.478787 2.099591 7.385275 139.999985
[Rope4_Seg05]
32 139.999802 -0.000060 -0.000119 0.915183 2.117553 -1.697994 139.999802
33 139.999802 -0.000060 -0.000119 1.023366 2.097437 -2.022708 139.999802
[Rope4_Seg06]
32 139.999924 0.000000 0.000060 0.612060 1.435473 -0.826584 139.999924
33 139.999924 0.000000 0.000060 0.662268 1.407088 -0.984399 139.999924
[Rope4_Seg07]
32 139.999802 0.000000 0.000000 0.355291 1.065283 -0.089011 139.999802
33 139.999802 0.000000 0.000000 0.414652 1.061028 -0.266528 139.999802
[Rope4_Seg08]
32 139.999924 0.000000 0.000119 -1.321649 0.606916 -0.054803 139.999924
33 139.999924 0.000000 0.000119 -1.285106 0.608241 -0.158491 139.999924
[Rope4_Seg09]
32 90.185791 0.000060 0.000060 -135.617828 2.228885 0.850567 90.185791
33 90.185791 0.000060 0.000060 -135.617828 2.228885 0.850567 90.185791
[L_rear_hand01]
32 101.696655 -8.392275 -7.654577 -34.454281 -18.946800 151.655121 102.329041
33 101.696655 -8.392275 -7.654577 -34.454281 -18.946800 151.655121 102.329041
[L_rear_hand02]
32 102.726799 -1.568258 5.773216 83.407906 30.330435 172.796509 102.900848
33 102.726799 -1.568258 5.773216 83.407906 30.330435 172.796509 102.900848
[L_rear_hand03]
32 104.552910 9.721220 -10.420293 -161.379868 -16.473232 -150.512238 105.519653
33 104.552910 9.721220 -10.420293 -161.379868 -16.473232 -150.512238 105.519653
